<?xml version="1.0" encoding="utf-8"?>
<!-- Generator: Adobe Illustrator 16.0.3, SVG Export Plug-In . SVG Version: 6.00 Build 0)  -->
<!DOCTYPE svg PUBLIC "-//W3C//DTD SVG 1.1//EN" "http://www.w3.org/Graphics/SVG/1.1/DTD/svg11.dtd">
<svg version="1.1" id="logo" xmlns="http://www.w3.org/2000/svg" xmlns:xlink="http://www.w3.org/1999/xlink" x="0px" y="0px" width="718px" height="330px" viewBox="0 0 718 330" enable-background="new 0 0 718 330" xml:space="preserve">
<g>
	<path fill="none" stroke="#000000" stroke-width="6" stroke-linecap="round" stroke-miterlimit="10" d="M64.53,103.257 c0,0,9.205,2.092,9.205,25.523c0,23.431,0,88.563,0,88.563s-0.209,19.246,19.246,19.246c3.069,0,9.205,0,9.205,0"/>
	<path fill="none" stroke="#000000" stroke-width="6" stroke-linecap="round" stroke-miterlimit="10" d="M139.564,103.257 c0,0-9.205,2.092-9.205,25.523c0,23.431,0,88.563,0,88.563s0.21,19.246-19.247,19.246c-3.068,0-9.205,0-9.205,0"/>
	<line fill="none" stroke="#000000" stroke-width="6" stroke-linecap="round" stroke-miterlimit="10" x1="73.909" y1="124.387" x2="130.185" y2="124.387"/>
	<line fill="none" stroke="#000000" stroke-width="6" stroke-linecap="round" stroke-miterlimit="10" x1="87.773" y1="176.898" x2="116.322" y2="176.898"/>
	<line fill="none" stroke="#000000" stroke-width="6" stroke-linecap="round" stroke-miterlimit="10" x1="147.34" y1="88.26" x2="235.506" y2="88.26"/>
	<path fill="none" stroke="#000000" stroke-width="6" stroke-linecap="round" stroke-miterlimit="10" d="M189.618,50.26 c0,0,11,2.5,11,30.5s0,47.333,0,47.333s-0.25,23,23,23c3.667,0,36.389,0,36.389,0"/>
	<path fill="none" stroke="#000000" stroke-width="6" stroke-linecap="round" stroke-miterlimit="10" d="M260.006,108.76 c0,0-2.5,11-30.5,11s-58.833,0-58.833,0s-23-0.25-23,23c0,3.668,0,18.833,0,18.833"/>
	<line fill="none" stroke="#000000" stroke-width="6" stroke-linecap="round" stroke-miterlimit="10" x1="146.506" y1="176.76" x2="260.006" y2="176.76"/>
	<path fill="none" stroke="#000000" stroke-width="6" stroke-linecap="round" stroke-miterlimit="10" d="M146.506,259.761 c0,0,21.25-4.251,21.25-32.251c0-28.239,0-27.698,0-50.166"/>
	<path fill="none" stroke="#000000" stroke-width="6" stroke-linecap="round" stroke-miterlimit="10" d="M260.006,259.761 c0,0-21.249-4.251-21.249-32.251c0-28.239,0-27.698,0-50.166"/>
	<path fill="none" stroke="#000000" stroke-width="3" stroke-linecap="round" stroke-linejoin="round" stroke-miterlimit="10" d="M316.764,163.01c0-41.574-7.787-88.216-34.994-115.44c-27.23-27.245-73.896-35.055-115.502-35.055 c-41.572,0-88.213,7.783-115.438,34.987C23.586,74.729,15.773,121.4,15.773,163.01c0,41.591,7.798,88.245,35.022,115.471 c27.225,27.227,73.881,35.025,115.473,35.025s88.245-7.799,115.473-35.025C308.965,251.255,316.764,204.601,316.764,163.01z"/>
</g>
<g>
	<path fill="#040000" stroke="#040000" stroke-width="13" stroke-miterlimit="10" d="M699.934,163.01 c0-41.574-7.787-88.216-34.994-115.439c-27.23-27.246-73.895-35.056-115.502-35.056c-41.572,0-88.213,7.783-115.438,34.987 c-27.244,27.227-35.057,73.898-35.057,115.508c0,41.591,7.797,88.245,35.021,115.471 c27.225,27.228,73.881,35.025,115.473,35.025s88.246-7.798,115.473-35.025C692.135,251.255,699.934,204.601,699.934,163.01z"/>
	<path fill="none" stroke="#FFFFFF" stroke-width="6" stroke-linecap="round" stroke-miterlimit="10" d="M447.699,103.257 c0,0,9.205,2.093,9.205,25.523s0,88.563,0,88.563s-0.209,19.246,19.246,19.246c3.07,0,9.205,0,9.205,0"/>
	<path fill="none" stroke="#FFFFFF" stroke-width="6" stroke-linecap="round" stroke-miterlimit="10" d="M522.734,103.257 c0,0-9.205,2.093-9.205,25.523s0,88.563,0,88.563s0.209,19.246-19.248,19.246c-3.068,0-9.205,0-9.205,0"/>
	<line fill="none" stroke="#FFFFFF" stroke-width="6" stroke-linecap="round" stroke-miterlimit="10" x1="457.078" y1="124.387" x2="513.355" y2="124.387"/>
	<line fill="none" stroke="#FFFFFF" stroke-width="6" stroke-linecap="round" stroke-miterlimit="10" x1="470.943" y1="176.898" x2="499.492" y2="176.898"/>
	<line fill="none" stroke="#FFFFFF" stroke-width="6" stroke-linecap="round" stroke-miterlimit="10" x1="530.51" y1="88.26" x2="618.676" y2="88.26"/>
	<path fill="none" stroke="#FFFFFF" stroke-width="6" stroke-linecap="round" stroke-miterlimit="10" d="M572.787,50.26 c0,0,11,2.5,11,30.5s0,47.333,0,47.333s-0.25,23,23,23c3.668,0,36.389,0,36.389,0"/>
	<path fill="none" stroke="#FFFFFF" stroke-width="6" stroke-linecap="round" stroke-miterlimit="10" d="M643.176,108.76 c0,0-2.5,11-30.5,11s-58.832,0-58.832,0s-23-0.25-23,23c0,3.668,0,18.833,0,18.833"/>
	<line fill="none" stroke="#FFFFFF" stroke-width="6" stroke-linecap="round" stroke-miterlimit="10" x1="529.676" y1="176.76" x2="643.176" y2="176.76"/>
	<path fill="none" stroke="#FFFFFF" stroke-width="6" stroke-linecap="round" stroke-miterlimit="10" d="M529.676,259.761 c0,0,21.25-4.251,21.25-32.251c0-28.239,0-27.698,0-50.166"/>
	<path fill="none" stroke="#FFFFFF" stroke-width="6" stroke-linecap="round" stroke-miterlimit="10" d="M643.176,259.761 c0,0-21.248-4.251-21.248-32.251c0-28.239,0-27.698,0-50.166"/>
	<path fill="none" stroke="#FFFFFF" stroke-width="3" stroke-linecap="round" stroke-linejoin="round" stroke-miterlimit="10" d="M699.934,163.01c0-41.574-7.787-88.216-34.994-115.439c-27.23-27.246-73.895-35.056-115.502-35.056 c-41.572,0-88.213,7.783-115.438,34.987c-27.244,27.227-35.057,73.898-35.057,115.508c0,41.591,7.797,88.245,35.021,115.471 c27.225,27.228,73.881,35.025,115.473,35.025s88.246-7.798,115.473-35.025C692.135,251.255,699.934,204.601,699.934,163.01z"/>
</g>
</svg>
